<svg id="Calque_1" data-name="Calque 1" xmlns="http://www.w3.org/2000/svg" viewBox="0 0 443.06 443.06"><defs><style>.cls-1,.cls-2,.cls-3,.cls-4,.cls-5,.cls-6,.cls-7,.cls-8,.cls-9{fill:none;stroke:#231f20;stroke-miterlimit:10;stroke-width:2px;}.cls-2{stroke-dasharray:5.71 5.71;}.cls-3{stroke-dasharray:5.73 5.73;}.cls-4{stroke-dasharray:5.76 5.76;}.cls-5{stroke-dasharray:5.76 5.76;}.cls-6{stroke-dasharray:5.75 5.75;}.cls-7{stroke-dasharray:5.67 5.67;}.cls-8{stroke-dasharray:5.87 5.87;}.cls-9{stroke-dasharray:5.79 5.79;}.cls-10{fill:#231f20;}</style></defs><title>alice project</title><path class="cls-1" d="M703.21,274.87q.22-1.49.45-3" transform="translate(-697.94 -84.94)"/><path class="cls-2" d="M704.63,266.28a217.29,217.29,0,0,1,33.19-81.34" transform="translate(-697.94 -84.94)"/><path class="cls-1" d="M739.43,182.58q.85-1.23,1.72-2.46" transform="translate(-697.94 -84.94)"/><path class="cls-1" d="M741.33,433.08q-.87-1.22-1.72-2.46" transform="translate(-697.94 -84.94)"/><path class="cls-3" d="M736.41,425.87a217.24,217.24,0,0,1-32.29-82" transform="translate(-697.94 -84.94)"/><path class="cls-1" d="M703.66,341q-.24-1.48-.45-3" transform="translate(-697.94 -84.94)"/><path class="cls-1" d="M888.3,522.79l-3-.44" transform="translate(-697.94 -84.94)"/><path class="cls-4" d="M879.66,521.38a217.29,217.29,0,0,1-82.12-33.53" transform="translate(-697.94 -84.94)"/><path class="cls-1" d="M795.16,486.22l-2.45-1.72" transform="translate(-697.94 -84.94)"/><path class="cls-1" d="M1046.24,484.5l-2.45,1.73" transform="translate(-697.94 -84.94)"/><path class="cls-5" d="M1039,489.44a217.24,217.24,0,0,1-82.56,32.45" transform="translate(-697.94 -84.94)"/><path class="cls-1" d="M953.6,522.35l-3,.44" transform="translate(-697.94 -84.94)"/><path class="cls-1" d="M1135.8,337.62q-.21,1.49-.44,3" transform="translate(-697.94 -84.94)"/><path class="cls-6" d="M1134.39,346.26a217.29,217.29,0,0,1-33.43,82" transform="translate(-697.94 -84.94)"/><path class="cls-1" d="M1099.33,430.62q-.85,1.23-1.72,2.46" transform="translate(-697.94 -84.94)"/><path class="cls-1" d="M1098.45,181q.86,1.23,1.71,2.47" transform="translate(-697.94 -84.94)"/><path class="cls-7" d="M1103.28,188.23a217.21,217.21,0,0,1,31.61,81.3" transform="translate(-697.94 -84.94)"/><path class="cls-1" d="M1135.35,272.34q.23,1.48.44,3" transform="translate(-697.94 -84.94)"/><path class="cls-1" d="M951.07,90.21l3,.45" transform="translate(-697.94 -84.94)"/><path class="cls-8" d="M959.82,91.66a217.33,217.33,0,0,1,83.39,34.66" transform="translate(-697.94 -84.94)"/><path class="cls-1" d="M1045.61,128l2.44,1.75" transform="translate(-697.94 -84.94)"/><path class="cls-1" d="M792.33,128.71l2.45-1.73" transform="translate(-697.94 -84.94)"/><path class="cls-9" d="M799.58,123.74a217.24,217.24,0,0,1,82.9-32.68" transform="translate(-697.94 -84.94)"/><path class="cls-1" d="M885.34,90.59l3-.44" transform="translate(-697.94 -84.94)"/><polygon class="cls-10" points="204.51 0 204.51 1.81 221.45 31.88 238.55 1.91 238.55 0 204.51 0"/><polygon class="cls-10" points="443.06 204.51 441.25 204.51 411.19 221.45 441.15 238.55 443.06 238.55 443.06 204.51"/><polygon class="cls-10" points="238.55 443.06 238.55 441.25 221.61 411.19 204.51 441.15 204.51 443.06 238.55 443.06"/><polygon class="cls-10" points="0 238.55 1.81 238.55 31.88 221.61 1.91 204.51 0 204.51 0 238.55"/><polygon class="cls-10" points="366.06 77.29 385.13 70.28 373.13 58.28 366.06 77.29"/><polygon class="cls-10" points="366.09 365.68 373.1 384.75 385.1 372.75 366.09 365.68"/><polygon class="cls-10" points="77.76 365.71 58.7 372.72 70.69 384.71 77.76 365.71"/><polygon class="cls-10" points="77.73 77.32 70.73 58.25 58.73 70.25 77.73 77.32"/></svg>